<svg width="40" height="40" fill="none" xmlns="http://www.w3.org/2000/svg"><path d="M35 5H5a5 5 0 00-5 5v20a5 5 0 005 5h30a5 5 0 005-5V10a5 5 0 00-5-5zm-8.23 13.342l10.583-9.07c.074.235.147.47.147.728v20c0 .173-.066.327-.1.49L26.77 18.343zM35 7.5c.166 0 .313.064.469.095L20 20.855 4.531 7.595c.157-.031.303-.095.469-.095h30zM2.599 30.488c-.034-.163-.099-.315-.099-.488V10c0-.259.074-.493.148-.728l10.58 9.068-10.63 12.148zM5 32.5c-.253 0-.482-.073-.713-.144l10.84-12.388 4.06 3.48a1.24 1.24 0 001.626-.001l4.06-3.479 10.84 12.388c-.23.07-.46.144-.713.144H5z" fill="#403E3E" fill-opacity=".6"/></svg>