<svg width="40" height="40" fill="none" xmlns="http://www.w3.org/2000/svg"><path d="M20.219 39.625C9.406 39.672.516 30.672.773 19.68 1.016 9.21 9.687.562 20.47.68c10.68.117 19.515 9.007 19.226 20.015-.273 10.422-8.875 18.985-19.476 18.93zM3.14 20.18c.086 9.789 8.023 17.328 17.398 17.164 9.078-.164 16.773-7.563 16.773-17.188 0-9.789-8-17.36-17.406-17.18-9.078.165-16.703 7.587-16.765 17.204z" fill="#403E3E" fill-opacity=".6"/><path d="M16.156 33.86V20.085h-3.008v-4.64c.133-.008.266-.024.407-.024.726 0 1.46-.016 2.187.008.32.008.43-.078.422-.407a178.47 178.47 0 01-.008-3.554c.008-1.336.383-2.547 1.336-3.516.922-.937 2.102-1.445 3.383-1.523 2.063-.117 4.133-.102 6.203-.14.024 0 .047.022.094.046v4.766c-.149.007-.29.015-.422.015h-2.813c-.945.008-1.5.57-1.5 1.5 0 .883 0 1.774.008 2.656 0 .024.016.047.04.133h4.75c-.204 1.586-.391 3.102-.594 4.672h-4.22v13.797c-2.1-.016-4.148-.016-6.265-.016z" fill="#403E3E" fill-opacity=".6"/></svg>