<svg width="40" height="40" fill="none" xmlns="http://www.w3.org/2000/svg"><path d="M20 0C8.972 0 0 8.972 0 20s8.972 20 20 20 20-8.972 20-20S31.028 0 20 0zm0 38.027C10.06 38.027 1.973 29.94 1.973 20 1.973 10.06 10.06 1.973 20 1.973c9.94 0 18.027 8.087 18.027 18.027 0 9.94-8.087 18.027-18.027 18.027z" fill="#403E3E" fill-opacity=".6"/><path d="M27.386 8.368H12.402a4.007 4.007 0 00-4.008 3.996V27.37a4.007 4.007 0 004.008 3.997h14.983a4.007 4.007 0 004.009-3.997V12.364a4.006 4.006 0 00-4.008-3.996zM23.36 19.825a3.464 3.464 0 01-3.466 3.456 3.465 3.465 0 01-3.466-3.456 3.44 3.44 0 011.002-2.427h4.927a3.435 3.435 0 011.003 2.427zm1.005-8.26h3.51v3.606h-3.51v-3.606zm3.02 17.448H12.403a1.646 1.646 0 01-1.647-1.642v-9.973h3.851c-.343.74-.54 1.56-.54 2.427 0 3.204 2.615 5.81 5.828 5.81s5.827-2.606 5.827-5.81c0-.867-.197-1.687-.54-2.427h3.851v9.973c0 .905-.739 1.642-1.646 1.642z" fill="#403E3E" fill-opacity=".6"/></svg>