<svg width="95" height="19" fill="none" xmlns="http://www.w3.org/2000/svg"><path d="M8.932 19H6.02c-.173-.52-.26-1.265-.26-2.236v-2.86c0-.832-.147-1.421-.442-1.768-.295-.364-.771-.546-1.43-.546H2.9V19H.04V.8h4.316c1.473 0 2.548.347 3.224 1.04.676.676 1.014 1.725 1.014 3.146v1.43c0 1.872-.624 3.103-1.872 3.692 1.265.537 1.898 1.829 1.898 3.874v2.808c0 .988.104 1.725.312 2.21zM4.278 3.4H2.9v5.59h1.118c.572 0 .997-.147 1.274-.442.295-.295.442-.789.442-1.482V5.272c0-1.248-.485-1.872-1.456-1.872zm11.683 0v5.07h3.926v2.6H15.96v5.33h4.94V19h-7.8V.8h7.8v2.6h-4.94zM31.799 19l-2.782-7.254-.884 1.664V19h-2.86V.8h2.86v7.93L31.877.8h2.86L30.76 8.912 34.737 19H31.8zm6.84 0V.8h2.86V19h-2.86zM52.3 19L48.738 5.818V19h-2.574V.8h3.588l2.938 10.894V.8h2.548V19H52.3z" fill="#403E3E"/><path d="M67.296 14.97h-5.668l-.91 4.03h-1.092L63.604.774h1.742L69.402 19h-1.196l-.91-4.03zm-2.86-12.818L61.81 13.93h5.304L64.436 2.152zM73.81.8h3.796c2.6 0 3.9 1.37 3.9 4.108v1.586c0 2.115-.875 3.371-2.626 3.77 1.75.381 2.626 1.62 2.626 3.718v2.834c0 1.005.147 1.733.442 2.184H80.7c-.26-.45-.39-1.179-.39-2.184v-2.86c0-1.144-.286-1.941-.858-2.392-.572-.468-1.421-.702-2.548-.702h-1.898V19H73.81V.8zm1.196 8.97h1.924c1.144 0 1.993-.217 2.548-.65.555-.433.832-1.23.832-2.392V5.012c0-2.08-.91-3.12-2.73-3.12h-2.574V9.77zM90.78 19h-1.196V1.892h-3.718V.8h8.606v1.092H90.78V19z" fill="#403E3E" fill-opacity=".7"/></svg>